<?xml version="1.0" encoding="utf-8"?>
<!-- Generator: Adobe Illustrator 17.0.0, SVG Export Plug-In . SVG Version: 6.00 Build 0)  -->
<!DOCTYPE svg PUBLIC "-//W3C//DTD SVG 1.1//EN" "http://www.w3.org/Graphics/SVG/1.1/DTD/svg11.dtd">
<svg version="1.1" xmlns="http://www.w3.org/2000/svg" xmlns:xlink="http://www.w3.org/1999/xlink" x="0px" y="0px" width="600px"
	 height="600px" viewBox="0 0 600 600" style="enable-background:new 0 0 600 600;" xml:space="preserve">
<style type="text/css">
	.style1{fill:none;stroke:#8E8E8E;stroke-width:11;stroke-miterlimit:10;}
	.style2{fill:none;stroke:#EE266E;stroke-width:11;stroke-miterlimit:10;}
	.style3{fill:none;stroke:#515251;stroke-width:11;stroke-miterlimit:10;}
	.style4{fill:#515251;stroke:#515251;stroke-miterlimit:10;}
	.style5{fill:#8E8E8D;stroke:#8E8E8D;stroke-miterlimit:10;}
	.st0{fill:none;stroke:#515251;stroke-width:20;stroke-miterlimit:10;}
	.st1{fill:#8E8E8D;stroke:#8E8E8D;stroke-miterlimit:10;}
</style>
<g id="layer4">
	<circle class="st0" cx="304.757" cy="300" r="250"/>
</g>
<g id="layer5">
	<g>
		<path class="st1" d="M201.966,398.874c1.378,0,2.665,0.18,3.863,0.541c1.197,0.362,2.248,0.911,3.15,1.649
			c0.902,0.739,1.607,1.649,2.117,2.732c0.508,1.083,0.763,2.362,0.763,3.838c0,1.051-0.189,2.051-0.566,3.003
			c-0.378,0.952-0.895,1.789-1.551,2.51c-0.657,0.722-1.436,1.304-2.338,1.747c-0.903,0.443-1.895,0.698-2.978,0.763v0.099
			c1.148,0.032,2.239,0.255,3.273,0.664c1.034,0.411,1.936,0.984,2.707,1.722c0.771,0.739,1.386,1.641,1.846,2.707
			c0.459,1.067,0.689,2.272,0.689,3.618c0,1.574-0.288,2.961-0.862,4.159c-0.574,1.198-1.37,2.191-2.387,2.978
			c-1.017,0.787-2.239,1.387-3.667,1.796c-1.428,0.411-2.978,0.615-4.651,0.615h-14.52v-35.141H201.966z M201.966,415.213
			c1.181,0,2.305-0.155,3.371-0.467c1.066-0.311,2.01-0.787,2.83-1.427c0.819-0.639,1.476-1.435,1.968-2.386
			c0.493-0.952,0.738-2.05,0.738-3.298c0-1.345-0.23-2.501-0.689-3.469c-0.46-0.967-1.091-1.772-1.895-2.412
			c-0.804-0.64-1.747-1.115-2.83-1.428c-1.083-0.311-2.248-0.467-3.494-0.467H187.84v15.355H201.966z M201.818,433.031
			c1.443,0,2.781-0.173,4.011-0.517c1.23-0.345,2.296-0.869,3.199-1.575c0.902-0.705,1.616-1.591,2.141-2.658
			c0.525-1.066,0.787-2.32,0.787-3.765c0-1.542-0.287-2.838-0.861-3.888c-0.574-1.05-1.329-1.902-2.264-2.559
			c-0.935-0.656-2.002-1.132-3.199-1.428c-1.199-0.296-2.42-0.443-3.667-0.443H187.84v16.833H201.818z"/>
		<path class="st1" d="M238.78,434.015h-21.508v-35.141h0.984v34.157h20.524V434.015z"/>
		<path class="st1" d="M266.736,398.874v22.05c0,4.725-1.1,8.219-3.298,10.483c-2.198,2.264-5.398,3.396-9.597,3.396
			c-4.201,0-7.4-1.132-9.598-3.396s-3.297-5.758-3.297-10.483v-22.05h0.984v22.05c0,4.232,0.967,7.449,2.904,9.647
			c1.936,2.199,4.938,3.297,9.007,3.297c4.068,0,7.07-1.098,9.007-3.297c1.936-2.198,2.904-5.414,2.904-9.647v-22.05H266.736z"/>
		<path class="st1" d="M305.125,398.874v35.141h-0.984v-33.911h-0.099l-14.913,33.911h-1.083l-14.913-33.911h-0.099v33.911h-0.984
			v-35.141h1.624l14.864,33.861h0.099l14.865-33.861H305.125z"/>
		<path class="st1" d="M310.416,409.357c0.705-2.231,1.739-4.184,3.101-5.857c1.36-1.674,3.051-3.003,5.068-3.987
			c2.019-0.984,4.339-1.477,6.965-1.477s4.947,0.493,6.965,1.477c2.019,0.984,3.708,2.313,5.07,3.987
			c1.361,1.673,2.395,3.625,3.101,5.857c0.704,2.231,1.057,4.594,1.057,7.087c0,2.495-0.353,4.857-1.057,7.088
			c-0.707,2.231-1.74,4.183-3.101,5.857c-1.361,1.673-3.051,2.994-5.07,3.962c-2.017,0.967-4.339,1.452-6.965,1.452
			s-4.946-0.484-6.965-1.452c-2.018-0.967-3.708-2.289-5.068-3.962c-1.363-1.674-2.396-3.625-3.101-5.857
			c-0.705-2.231-1.059-4.594-1.059-7.088C309.357,413.95,309.711,411.588,310.416,409.357z M311.449,423.433
			c0.705,2.133,1.706,3.97,3.003,5.512c1.295,1.543,2.879,2.748,4.749,3.618c1.871,0.87,3.987,1.304,6.349,1.304
			s4.48-0.434,6.349-1.304c1.871-0.87,3.453-2.075,4.75-3.618c1.295-1.542,2.296-3.379,3.002-5.512
			c0.705-2.133,1.074-4.463,1.108-6.99c-0.034-2.526-0.403-4.856-1.108-6.989c-0.705-2.133-1.706-3.97-3.002-5.513
			c-1.297-1.542-2.879-2.747-4.75-3.617c-1.87-0.869-3.987-1.305-6.349-1.305s-4.478,0.436-6.349,1.305
			c-1.87,0.87-3.453,2.075-4.749,3.617c-1.297,1.543-2.297,3.38-3.003,5.513c-0.705,2.133-1.074,4.463-1.107,6.989
			C310.375,418.971,310.744,421.301,311.449,423.433z"/>
		<path class="st1" d="M371.717,398.874v22.05c0,4.725-1.101,8.219-3.297,10.483c-2.199,2.264-5.4,3.396-9.598,3.396
			c-4.201,0-7.4-1.132-9.598-3.396s-3.297-5.758-3.297-10.483v-22.05h0.985v22.05c0,4.232,0.966,7.449,2.903,9.647
			c1.937,2.199,4.939,3.297,9.007,3.297s7.07-1.098,9.007-3.297c1.935-2.198,2.903-5.414,2.903-9.647v-22.05H371.717z"/>
		<path class="st1" d="M378.509,398.874l24.018,33.911h0.099v-33.911h0.984v35.141h-1.477l-24.018-33.911h-0.099v33.911h-0.984
			v-35.141H378.509z"/>
		<path class="st1" d="M405.479,398.874h26.232v0.984h-12.648v34.157h-0.985v-34.157h-12.599V398.874z"/>
	</g>
</g>
<g id="layer1">
	<polygon class="style1" points="115.552,366.392 180.504,253.892 245.456,366.392 	"/>
</g>
<g id="layer2">
	<polygon class="style2" points="184.427,366.392 309.284,150.135 434.14,366.392 	"/>
</g>
<g id="layer3">
	<polygon class="style3" points="365.265,366.392 430.217,253.892 495.169,366.392 	"/>
</g>
</svg>
